<?xml version="1.0" standalone="no"?>
<!DOCTYPE svg PUBLIC "-//W3C//DTD SVG 20010904//EN"
 "http://www.w3.org/TR/2001/REC-SVG-20010904/DTD/svg10.dtd">
<svg version="1.0" xmlns="http://www.w3.org/2000/svg"
 width="907.000000pt" height="993.000000pt" viewBox="0 0 907.000000 993.000000"
 preserveAspectRatio="xMidYMid meet">

<g transform="translate(0.000000,993.000000) scale(0.100000,-0.100000)"
fill="#000000" stroke="none">
<path d="M3925 9849 c-197 -10 -546 -45 -700 -69 -71 -11 -171 -27 -222 -35
-344 -53 -883 -197 -1213 -325 -30 -12 -68 -26 -85 -32 -173 -61 -622 -288
-717 -361 -25 -20 -40 -66 -32 -101 4 -17 36 -76 71 -133 l65 -103 -28 -37
c-15 -21 -53 -68 -84 -104 -75 -89 -259 -323 -306 -390 -21 -30 -66 -90 -100
-134 -96 -125 -144 -212 -144 -259 0 -29 -20 -80 -75 -193 -41 -85 -75 -159
-75 -166 1 -7 17 19 36 57 40 79 87 146 138 195 30 29 36 42 36 77 0 39 5 46
82 120 46 44 107 94 136 112 53 32 69 31 30 -4 -28 -25 -186 -236 -221 -296
-15 -26 -27 -56 -27 -68 0 -11 -5 -26 -10 -33 -15 -17 -140 -230 -191 -324
-23 -43 -49 -86 -57 -96 -8 -9 -12 -20 -8 -24 3 -4 32 19 64 50 49 49 65 58
120 71 35 8 70 12 77 10 7 -3 23 -1 34 6 18 9 21 20 21 76 0 65 0 65 50 114
163 158 440 314 735 412 231 76 333 101 482 118 175 19 213 28 250 56 34 26
35 29 31 80 -4 42 -15 69 -57 135 -28 45 -50 82 -49 83 22 14 177 66 276 92
70 19 170 46 222 60 165 45 483 119 550 129 19 2 103 16 185 29 464 77 809 99
1435 93 267 -2 517 -9 555 -15 39 -6 138 -16 220 -22 378 -28 920 -136 1335
-267 120 -38 296 -100 308 -109 2 -1 -15 -26 -37 -55 -46 -61 -81 -129 -81
-158 0 -30 45 -76 87 -89 21 -6 108 -23 194 -37 249 -40 608 -171 837 -306
101 -59 252 -172 307 -229 38 -38 40 -45 45 -113 l5 -72 54 -7 c80 -9 131 -33
180 -83 24 -25 47 -45 51 -45 8 0 -100 209 -159 308 -17 29 -31 56 -31 60 0 4
-9 18 -20 32 -11 14 -20 36 -20 49 0 37 -153 274 -228 354 -14 15 -22 27 -18
27 20 0 139 -95 190 -151 48 -54 56 -68 56 -102 0 -30 7 -45 28 -65 50 -48 92
-109 127 -184 18 -40 34 -67 34 -60 1 8 -28 77 -64 155 -45 98 -65 153 -65
181 0 47 -45 133 -134 256 -34 47 -70 99 -80 115 -18 28 -202 274 -332 443
l-55 72 64 88 c77 106 87 123 87 158 0 36 -55 87 -164 153 -75 46 -130 73
-383 192 -561 263 -1099 428 -1773 543 -495 84 -1281 125 -1845 95z m1035 -69
c63 -5 178 -14 255 -20 165 -12 455 -47 505 -60 19 -5 82 -16 140 -26 139 -22
314 -58 425 -88 50 -14 137 -37 195 -51 58 -15 121 -33 140 -40 19 -8 114 -39
210 -70 148 -48 289 -101 425 -160 432 -187 666 -304 744 -371 33 -30 35 -33
22 -57 -13 -25 -156 -216 -218 -293 -18 -21 -77 -95 -132 -164 -148 -184 -148
-185 -174 -172 -86 43 -219 101 -252 112 -22 7 -58 21 -80 31 -104 47 -408
155 -522 185 -639 168 -1097 236 -1812 269 -277 13 -848 2 -1040 -20 -25 -3
-118 -12 -206 -21 -592 -58 -1289 -225 -1795 -432 -52 -21 -126 -51 -165 -67
-38 -15 -80 -32 -92 -38 -13 -6 -25 -8 -26 -6 -43 51 -175 235 -242 334 -48
71 -101 148 -117 170 -49 65 -138 208 -138 220 0 19 15 33 85 75 79 49 441
229 519 259 28 11 84 34 124 50 89 37 307 114 382 134 412 114 709 185 840
203 38 5 126 19 205 34 148 28 278 43 500 61 72 5 173 13 225 18 130 11 928
12 1070 1z m-3808 -1168 c43 -69 191 -275 287 -401 82 -107 95 -111 351 -111
142 0 211 -4 216 -11 11 -19 -10 -24 -153 -43 -239 -30 -282 -40 -618 -151
-134 -44 -300 -116 -377 -163 -93 -57 -239 -160 -273 -193 -17 -16 -34 -29
-38 -29 -4 0 -7 17 -7 38 0 55 91 197 237 370 41 49 53 71 53 96 0 55 -47 61
-132 18 l-54 -27 38 60 c21 33 78 109 126 169 48 60 110 139 138 175 28 36 68
84 88 106 21 22 49 59 64 82 15 24 29 43 32 43 3 0 13 -12 22 -28z m6787 -90
c16 -26 44 -63 61 -82 17 -19 46 -54 63 -78 18 -23 65 -86 106 -139 41 -53 97
-133 126 -178 l52 -81 -55 28 c-61 31 -103 36 -122 13 -18 -22 -5 -57 43 -117
49 -60 152 -204 186 -261 21 -34 26 -62 22 -115 -1 -7 -27 8 -58 36 -178 150
-377 262 -628 352 -66 23 -149 53 -185 66 -100 36 -201 60 -356 84 -152 24
-179 33 -154 50 10 7 59 8 140 3 214 -13 290 -10 328 14 38 24 166 169 295
336 51 64 95 117 98 117 4 0 21 -21 38 -48z m-5998 -254 c20 -24 49 -65 64
-93 29 -49 29 -49 5 -32 -21 15 -53 17 -237 17 -117 0 -213 3 -213 8 0 7 7 11
120 57 63 26 210 82 220 84 3 0 22 -18 41 -41z m5270 3 c30 -10 90 -36 134
-56 143 -66 135 -60 74 -63 -30 -1 -119 1 -199 6 -111 7 -151 6 -172 -4 -16
-7 -28 -10 -28 -7 0 20 108 143 125 143 7 0 36 -9 66 -19z"/>
<path d="M4515 9701 c-81 -5 -90 -8 -93 -26 -2 -12 8 -31 23 -45 16 -15 25
-34 25 -54 0 -34 -56 -256 -75 -300 l-13 -28 -15 43 c-9 24 -35 100 -58 169
-56 168 -51 160 -109 160 -57 0 -50 15 -105 -210 -19 -80 -39 -153 -43 -163
-6 -14 -21 16 -61 117 l-53 136 31 26 c34 28 42 70 15 81 -22 8 -297 -17 -311
-29 -23 -19 -14 -38 37 -70 l50 -33 81 -205 c44 -113 86 -220 93 -239 13 -33
12 -36 -15 -59 -30 -25 -37 -50 -18 -69 13 -13 268 -5 286 9 17 14 -2 57 -39
88 l-31 26 16 54 c9 30 18 66 21 80 9 52 24 112 29 116 2 3 25 -55 50 -128
l46 -133 -30 -25 c-36 -31 -39 -67 -5 -76 13 -3 78 -4 145 -2 94 3 124 7 131
18 15 23 13 27 -31 75 l-41 44 25 83 c14 46 43 146 66 223 23 77 61 181 86
230 l45 90 -21 18 c-12 9 -26 16 -33 15 -6 -1 -51 -4 -101 -7z"/>
<path d="M4923 9609 c-19 -19 -16 -30 13 -60 l25 -26 -39 -89 c-22 -49 -43
-99 -47 -111 -8 -30 -23 -29 -37 2 -15 34 -36 31 -52 -7 -60 -139 -63 -173
-16 -161 27 7 25 -3 -10 -64 -21 -36 -48 -65 -91 -93 -100 -68 -67 -90 139
-90 137 0 142 1 142 21 0 11 -16 39 -35 62 -38 44 -39 52 -10 120 l15 37 97
-4 96 -5 17 -48 c33 -94 33 -96 -5 -122 -33 -22 -45 -53 -27 -65 5 -3 56 -10
113 -16 57 -6 129 -13 160 -16 48 -5 57 -3 63 12 5 13 -7 30 -43 64 -42 40
-54 59 -75 123 l-24 76 22 -2 c19 -2 21 4 24 48 7 102 -17 147 -58 110 -11
-10 -22 -16 -25 -13 -11 10 -65 174 -65 196 0 13 12 33 26 46 20 16 25 28 20
43 -8 26 -27 30 -181 39 -92 4 -123 3 -132 -7z m130 -284 l16 -45 -49 0 -50 0
21 38 c12 20 23 40 26 45 10 17 22 4 36 -38z"/>
<path d="M3560 9595 c-14 -7 -81 -15 -150 -18 -90 -4 -142 -12 -185 -27 -218
-76 -304 -301 -201 -526 32 -69 93 -129 169 -165 51 -24 75 -29 134 -29 40 0
94 4 120 10 26 5 71 11 98 14 173 19 208 33 186 75 -7 11 -24 27 -40 35 -26
14 -28 21 -39 110 -16 128 -16 129 18 164 31 33 39 69 17 78 -7 2 -82 -2 -167
-11 -84 -8 -157 -15 -161 -15 -5 0 -9 -9 -9 -20 0 -12 7 -20 18 -20 29 0 78
-36 90 -66 13 -35 35 -214 27 -222 -9 -10 -122 -15 -160 -8 -89 17 -155 142
-155 293 0 89 16 128 72 179 39 35 42 36 109 32 59 -3 72 -8 99 -33 17 -16 33
-40 36 -52 5 -17 13 -23 33 -23 24 0 29 8 64 109 20 60 35 116 31 124 -8 22
-26 26 -54 12z"/>
<path d="M5645 9523 c-38 -8 -76 -19 -82 -25 -20 -16 -15 -44 10 -61 23 -15
23 -16 11 -109 -7 -51 -13 -94 -13 -95 -1 -2 -12 -3 -26 -3 -35 0 -81 -69 -65
-99 8 -15 20 -21 47 -21 l36 0 -7 -46 c-3 -26 -6 -57 -6 -70 0 -16 -14 -32
-45 -54 -42 -29 -58 -61 -36 -74 7 -5 73 -14 237 -33 67 -7 77 13 34 65 -27
33 -30 43 -30 108 0 99 3 104 60 104 52 0 55 -3 74 -91 8 -37 81 -165 123
-217 42 -52 108 -102 134 -102 10 0 23 9 29 19 8 16 1 32 -39 90 -54 79 -121
225 -128 283 -5 34 -3 37 23 43 58 13 84 28 123 71 45 48 56 78 47 128 -12 61
-60 114 -139 151 -115 54 -238 67 -372 38z m236 -103 c41 -12 85 -54 94 -92
14 -56 -78 -108 -191 -108 -36 0 -36 0 -30 38 3 20 8 64 11 97 4 33 9 63 12
68 6 10 61 9 104 -3z"/>
<path d="M6233 9453 c-7 -3 -13 -12 -13 -21 0 -37 48 -205 61 -212 20 -13 47
7 63 45 15 35 43 50 86 43 47 -6 46 -24 -11 -263 l-54 -228 -42 -20 c-46 -23
-61 -44 -41 -62 18 -17 255 -78 273 -71 20 7 19 28 -5 69 -24 40 -20 67 41
307 50 193 56 210 81 210 53 0 88 -39 88 -100 0 -30 17 -50 41 -50 9 0 48 35
87 79 84 93 83 99 -23 130 -137 39 -463 118 -600 145 -11 2 -26 2 -32 -1z"/>
<path d="M2525 9397 c-189 -63 -276 -217 -231 -410 31 -133 98 -221 206 -270
58 -26 72 -29 145 -25 232 13 355 178 310 416 -24 126 -84 216 -177 267 -43
24 -67 29 -133 32 -48 2 -96 -2 -120 -10z m152 -123 c60 -39 107 -188 101
-321 -3 -77 -5 -85 -35 -114 -26 -26 -42 -33 -85 -37 -48 -4 -58 -1 -86 23
-90 75 -145 316 -92 403 31 50 76 74 129 67 25 -3 55 -12 68 -21z"/>
<path d="M2011 9251 c-154 -49 -171 -67 -96 -106 35 -19 40 -27 66 -110 21
-67 25 -91 16 -97 -21 -13 -118 -39 -135 -36 -11 2 -26 31 -43 83 l-27 80 20
36 c24 42 21 73 -7 76 -11 1 -78 -19 -150 -45 -120 -43 -130 -49 -133 -74 -3
-24 2 -28 37 -39 21 -6 42 -19 44 -28 3 -9 41 -121 86 -250 74 -214 79 -235
66 -254 -20 -28 -19 -56 1 -64 14 -5 86 16 232 69 72 27 71 61 -2 85 -26 8
-33 20 -58 93 -15 46 -28 89 -28 95 0 7 32 23 70 36 55 18 73 21 79 11 4 -7
18 -49 31 -93 l23 -80 -22 -39 c-20 -35 -20 -39 -5 -55 9 -9 23 -14 32 -10 8
3 47 14 86 24 107 29 149 46 160 65 11 17 2 28 -54 70 -9 6 -47 116 -86 246
l-71 235 25 37 c29 44 26 72 -8 75 -14 1 -81 -15 -149 -36z"/>
<path d="M6999 9203 c-61 -31 -94 -79 -105 -150 -14 -91 50 -180 172 -240 124
-61 176 -132 140 -188 -29 -44 -88 -45 -174 -4 -49 24 -92 81 -92 121 0 37
-17 77 -36 85 -10 4 -42 -20 -100 -78 -108 -108 -110 -130 -10 -136 33 -2 62
-11 85 -27 113 -78 249 -116 344 -97 72 16 109 47 148 124 26 50 30 67 24 103
-9 63 -71 136 -163 193 -107 66 -162 117 -162 151 0 34 14 45 63 54 31 6 47 2
81 -18 53 -31 76 -64 76 -111 0 -20 5 -45 10 -56 20 -37 53 -23 128 55 90 93
94 126 14 126 -14 0 -56 18 -92 39 -141 84 -256 102 -351 54z"/>
<path d="M2853 7905 c-62 -31 -114 -96 -203 -254 -76 -132 -192 -277 -276
-342 -80 -63 -204 -123 -294 -143 -264 -60 -376 -236 -330 -519 12 -74 63
-209 99 -257 63 -88 195 -181 317 -225 105 -38 224 -92 246 -112 10 -9 18 -29
18 -44 0 -50 -59 -72 -122 -44 -13 5 -18 3 -18 -8 0 -25 46 -47 97 -47 101 0
152 101 104 205 -28 61 -95 116 -231 186 -230 119 -320 240 -320 430 0 83 24
143 74 187 34 30 42 32 109 32 90 -1 127 -14 214 -76 94 -67 149 -124 215
-225 93 -143 110 -185 147 -368 19 -93 33 -359 28 -526 -4 -138 -9 -176 -36
-280 -86 -326 -279 -714 -495 -995 -139 -181 -363 -406 -666 -670 l-51 -45 87
-100 c48 -55 196 -226 328 -380 132 -154 288 -334 347 -401 58 -67 115 -133
126 -148 l21 -26 71 52 c108 80 191 128 223 128 23 0 58 -30 201 -173 94 -95
204 -199 242 -229 87 -70 272 -168 385 -204 470 -149 499 -162 605 -251 124
-104 218 -239 262 -375 32 -98 58 -120 145 -122 55 -1 62 1 89 31 16 18 31 45
34 60 14 63 40 118 95 201 70 104 105 143 188 211 90 73 125 88 412 181 267
87 406 148 520 228 36 26 156 135 267 244 111 109 209 198 219 198 32 0 189
-97 256 -158 14 -13 31 -23 37 -21 5 2 130 144 278 315 147 171 350 406 451
522 100 116 182 213 182 215 0 2 -30 28 -67 58 -158 126 -412 374 -559 544
-257 297 -482 722 -581 1095 -31 119 -36 154 -40 290 -11 325 31 644 100 770
94 172 183 278 299 355 80 54 139 75 213 75 68 0 110 -28 147 -99 23 -44 28
-66 28 -126 0 -137 -54 -250 -159 -334 -48 -37 -201 -121 -250 -136 -130 -40
-188 -168 -115 -254 22 -27 70 -48 81 -37 3 2 -1 21 -8 40 -12 33 -11 38 7 57
11 11 88 47 170 80 256 103 358 189 424 361 111 289 36 539 -188 627 -28 11
-81 27 -116 36 -69 15 -173 64 -248 114 -103 70 -228 223 -333 407 -104 183
-165 233 -286 234 -57 0 -71 -4 -105 -28 -37 -28 -168 -142 -189 -166 -28 -31
-342 -295 -440 -369 -58 -45 -186 -107 -302 -148 -65 -23 -99 -29 -170 -29
-120 -1 -154 -15 -225 -94 -99 -109 -147 -108 -247 4 -70 81 -92 90 -219 97
-121 6 -199 28 -333 92 -136 64 -205 119 -702 559 -40 35 -86 70 -104 78 -51
22 -122 18 -180 -11z m121 -159 c22 -14 80 -60 127 -104 79 -72 287 -252 405
-348 189 -156 465 -274 641 -274 l73 0 72 -72 c40 -40 92 -82 116 -92 l42 -19
-2 -485 -3 -485 -62 -1 -63 -2 0 32 c0 41 -14 51 -80 60 -30 4 -68 13 -85 22
-42 21 -146 96 -172 124 -27 29 -53 89 -53 123 0 25 1 25 22 11 35 -25 90 -20
118 9 13 14 26 25 30 25 3 0 6 -18 7 -40 1 -22 5 -45 8 -50 12 -20 25 -9 25
20 0 17 6 43 14 58 7 15 17 46 21 69 3 22 13 49 22 60 12 15 14 15 9 1 -2 -9
-8 -44 -12 -77 -6 -53 -4 -61 10 -61 9 0 16 8 16 20 0 26 33 92 54 109 20 17
21 61 1 87 -21 27 -19 29 22 29 37 0 38 1 41 38 5 58 -17 77 -89 77 -55 0 -59
-2 -94 -42 -21 -24 -47 -63 -59 -88 -43 -89 -58 -113 -65 -103 -6 11 -150 23
-152 13 -1 -3 -3 -20 -5 -38 -12 -107 -85 -149 -99 -59 -4 23 -14 53 -22 65
l-15 24 -22 -21 c-27 -25 -43 -26 -67 -5 -13 12 -22 13 -38 5 -11 -6 -57 -11
-103 -11 -60 0 -90 -4 -106 -16 -33 -23 -36 -13 -6 19 16 17 35 27 54 27 16 0
41 11 57 24 27 23 28 29 33 134 4 100 7 113 29 136 19 20 22 29 13 38 -8 8
-18 7 -37 -6 -31 -20 -40 -42 -50 -121 -8 -72 -38 -129 -80 -155 -33 -20 -71
-89 -125 -221 -42 -104 -80 -134 -140 -109 -37 15 -55 60 -53 135 2 58 26 187
43 231 41 105 67 299 59 439 -13 220 -102 343 -240 333 -65 -5 -83 -17 -129
-86 -43 -65 -41 -110 10 -195 43 -71 52 -124 25 -151 -8 -8 -15 -19 -15 -25 0
-18 26 -13 45 9 20 22 22 62 10 187 -4 40 -4 89 -1 108 9 44 51 95 79 95 19 0
18 -3 -10 -20 -17 -10 -37 -28 -42 -39 -18 -34 -13 -179 9 -249 26 -84 25
-118 -5 -178 -30 -59 -29 -54 -6 -54 54 0 90 197 57 309 -23 77 -21 157 2 170
18 9 19 6 14 -39 -3 -32 3 -71 17 -118 36 -120 27 -217 -29 -305 -25 -40 -27
-49 -14 -54 21 -8 61 32 90 89 31 61 33 168 4 260 -21 67 -25 113 -12 122 41
25 92 -70 92 -172 0 -99 -51 -326 -116 -517 -52 -154 -57 -225 -22 -307 18
-43 20 -55 10 -82 -7 -18 -12 -58 -12 -90 0 -48 8 -75 46 -156 53 -112 51
-131 -16 -151 -21 -7 -42 -19 -45 -27 -3 -8 0 -52 6 -97 15 -110 1 -213 -42
-296 -21 -40 -30 -69 -27 -89 l5 -30 -75 0 c-66 0 -73 2 -67 18 68 177 127
379 146 497 11 70 14 363 5 503 -11 160 -39 326 -76 444 -75 238 -339 534
-550 616 -30 11 -64 22 -75 24 -15 3 -1 15 53 47 131 76 289 247 376 404 46
83 90 135 131 154 42 19 118 9 169 -21z m3267 8 c29 -15 63 -57 104 -129 46
-83 76 -126 143 -207 96 -117 153 -164 294 -244 17 -10 13 -14 -38 -30 -244
-77 -526 -396 -599 -679 -44 -172 -65 -367 -66 -630 -1 -275 21 -398 125 -675
20 -52 36 -98 36 -102 0 -5 -198 -8 -439 -8 l-439 0 -6 48 c-3 26 -5 92 -5
146 1 95 2 100 29 125 15 14 39 49 54 78 62 124 187 192 297 163 54 -14 86
-42 110 -95 20 -43 25 -110 9 -120 -5 -3 -10 -32 -10 -63 0 -85 -47 -217 -89
-249 -14 -11 -11 -12 18 -13 83 0 195 90 252 201 30 61 32 70 37 204 4 126 2
146 -18 197 -28 76 -104 158 -170 187 -28 12 -87 27 -130 33 -91 14 -138 5
-227 -39 l-51 -26 -55 47 c-31 26 -80 75 -110 110 -48 54 -54 64 -43 83 28 52
156 123 371 207 215 83 361 162 442 239 91 87 114 132 121 242 4 72 1 94 -18
147 -13 35 -33 79 -45 98 -97 150 -337 235 -525 186 -30 -8 -100 -34 -155 -57
-55 -23 -151 -55 -214 -71 -176 -45 -208 -64 -308 -189 -36 -46 -89 -108 -116
-137 -45 -49 -49 -56 -42 -90 4 -20 15 -42 26 -50 18 -12 17 -14 -18 -45 -42
-37 -72 -98 -73 -145 0 -40 -23 -87 -46 -96 -27 -10 -1 -28 30 -20 14 3 37 20
51 36 16 19 31 28 41 24 8 -3 32 2 52 10 l37 17 -35 8 c-34 7 -60 31 -60 56 0
23 44 81 75 99 16 9 39 25 50 34 11 9 47 22 80 29 92 20 185 63 285 133 309
216 337 230 460 231 51 0 85 -5 106 -16 39 -20 92 -79 100 -112 9 -35 -15
-126 -40 -154 -53 -60 -167 -115 -426 -207 -155 -55 -326 -141 -405 -204 -73
-58 -163 -152 -194 -202 -27 -45 -71 -155 -71 -179 0 -14 -15 -17 -97 -22 -54
-2 -101 -3 -105 0 -5 2 -8 219 -8 483 l0 478 53 30 c28 17 79 58 112 91 l59
61 67 0 c129 0 365 83 524 184 93 59 290 221 510 420 55 50 110 99 122 110 32
27 122 56 158 49 16 -3 42 -12 56 -19z m-1051 -896 c0 -28 -42 -80 -75 -94
-36 -15 -105 -19 -105 -6 0 10 39 72 45 72 3 0 10 -11 15 -25 11 -28 31 -32
50 -10 10 12 10 19 2 27 -19 19 -14 36 11 41 43 8 57 7 57 -5z m-1472 -647 c9
-5 -3 -10 -34 -15 -36 -5 -57 -15 -91 -47 -25 -22 -48 -38 -51 -34 -4 3 16 29
45 56 41 39 58 49 85 49 18 0 39 -4 46 -9z m36 -47 c30 -11 16 -24 -26 -24
-34 0 -52 -8 -87 -35 -24 -19 -53 -35 -65 -35 -19 0 -19 1 5 18 15 9 46 32 69
50 42 31 71 39 104 26z m38 -75 c23 -21 26 -27 11 -20 -34 17 -59 13 -91 -14
-37 -31 -74 -45 -101 -38 -25 7 -28 23 -3 23 9 0 39 18 66 40 26 22 57 40 67
40 10 0 33 -14 51 -31z m170 -241 l51 -38 496 0 c568 0 500 -11 642 106 l79
66 131 -128 c71 -71 134 -130 139 -132 21 -7 8 -30 -43 -74 -70 -60 -133 -144
-146 -193 -6 -25 -11 -204 -12 -467 l-1 -427 -24 -16 c-13 -8 -24 -22 -24 -29
0 -17 27 -29 35 -16 11 18 20 10 33 -31 9 -31 10 -45 2 -55 -15 -16 -4 -36 18
-33 10 1 51 -30 92 -69 l75 -72 -139 -139 -139 -140 -71 65 c-127 116 -86 109
-639 112 -383 2 -484 0 -505 -11 -15 -7 -69 -46 -120 -87 l-93 -73 -133 129
c-73 71 -134 132 -135 137 0 4 33 41 74 82 124 124 115 73 115 655 l0 501 -29
42 c-34 48 -89 108 -144 155 l-38 32 143 139 143 138 58 -46 c32 -25 81 -63
109 -83z m-435 -234 c40 -37 88 -87 106 -113 l32 -46 3 -197 c2 -121 0 -198
-6 -198 -5 0 -12 25 -15 56 -5 47 -12 63 -40 93 -19 20 -40 46 -46 58 -18 35
-13 108 10 147 32 55 20 105 -39 157 l-47 41 -7 -57 c-4 -32 -17 -77 -29 -101
-25 -53 -105 -127 -150 -140 -18 -5 -34 -15 -36 -21 -7 -19 52 -43 103 -43
l47 0 -23 -24 c-35 -38 -21 -56 43 -56 73 0 91 -15 82 -68 l-7 -42 -94 0 c-87
0 -94 1 -94 20 0 34 -35 60 -80 60 -53 0 -118 33 -131 68 -25 66 26 121 173
182 113 48 133 61 155 103 15 30 21 129 9 165 -4 12 -4 22 0 22 4 0 40 -30 81
-66z m133 -943 l0 -199 -36 -52 c-20 -29 -65 -80 -100 -113 -35 -32 -64 -65
-64 -71 0 -7 74 -85 164 -175 114 -113 169 -161 178 -155 24 14 82 58 155 116
l71 58 211 0 211 0 -1 -1037 0 -1038 -32 40 c-79 101 -231 227 -337 281 -36
18 -198 74 -282 98 -70 21 -73 24 -34 55 28 22 49 29 105 34 80 7 116 22 167
75 66 67 74 87 74 191 0 90 -15 175 -30 169 -4 -2 -34 -39 -67 -83 -53 -70
-61 -87 -67 -140 -11 -98 -66 -135 -203 -135 -46 0 -69 -6 -110 -30 -29 -17
-53 -38 -53 -46 0 -20 -34 -13 -100 19 -35 17 -46 29 -51 52 -3 17 -3 37 0 45
3 8 8 -3 11 -24 3 -21 13 -44 22 -50 23 -14 32 -2 18 24 l-12 22 30 -22 c35
-26 63 -21 59 11 -3 31 110 109 159 109 28 0 34 -4 32 -17 -5 -28 34 -27 91 1
48 25 81 65 81 99 0 8 6 17 14 20 25 10 128 177 123 200 -3 12 -17 62 -31 111
l-27 88 26 64 c14 35 30 99 37 143 15 108 2 143 -109 300 -17 24 -7 17 29 -21
79 -83 102 -135 106 -239 4 -81 1 -94 -31 -175 l-36 -88 24 -61 c95 -246 95
-246 95 -340 0 -75 -4 -99 -25 -144 -30 -63 -22 -82 23 -56 35 21 83 97 113
180 29 80 32 292 5 370 -10 28 -21 97 -25 155 -6 95 -11 113 -49 191 -45 94
-153 223 -253 301 -30 23 -56 45 -59 48 -16 18 -188 120 -330 195 -91 49 -177
98 -191 110 -31 25 -173 74 -238 82 -37 4 -51 1 -73 -17 -36 -28 -51 -85 -38
-142 16 -72 13 -198 -7 -220 -9 -10 -22 -18 -29 -18 -8 0 -21 -11 -30 -25 -17
-26 -103 -71 -154 -81 -24 -5 -30 -3 -30 11 0 16 -2 16 -25 1 -31 -20 -74 -21
-81 -1 -4 10 -13 13 -25 10 -16 -5 -19 -1 -19 23 0 16 7 49 15 72 8 23 15 63
15 88 l0 46 -45 -49 -45 -50 5 -115 c3 -63 2 -120 -3 -126 -4 -6 -40 -39 -81
-73 l-73 -61 -101 0 -100 0 -45 -45 c-37 -37 -48 -43 -58 -33 -7 7 -74 85
-149 173 l-136 160 98 92 c87 81 143 117 143 92 0 -5 -8 -9 -19 -9 -10 0 -24
-6 -30 -14 -19 -23 10 -36 90 -40 41 -2 88 -10 105 -19 29 -15 89 -72 117
-110 8 -11 19 -16 30 -11 18 7 23 24 7 24 -5 0 -10 7 -10 15 0 28 21 15 93
-55 39 -38 77 -70 84 -70 10 0 13 27 13 113 0 96 -3 116 -17 130 -10 8 -65 30
-122 47 -74 23 -114 42 -140 65 -50 45 -78 58 -109 50 -27 -6 -26 -6 9 32 241
258 398 471 508 691 l51 102 480 0 480 0 0 -199z m2729 81 c147 -292 387 -586
769 -945 l72 -69 -22 -26 c-444 -521 -565 -661 -585 -679 l-24 -23 -28 21 -28
21 21 23 c55 60 176 347 200 476 16 79 19 289 6 289 -6 0 -10 -4 -10 -9 0 -6
-15 -11 -32 -13 l-33 -3 -7 -100 c-18 -245 -121 -475 -242 -540 -41 -22 -63
-11 -26 14 60 39 102 88 134 155 69 141 100 252 112 393 6 68 4 87 -10 107
-26 40 -41 22 -54 -62 -20 -134 -75 -287 -137 -378 -58 -86 -85 -116 -85 -95
0 7 20 40 44 74 24 34 53 80 64 102 28 55 80 229 88 293 6 48 5 52 -14 52 -11
0 -27 3 -35 6 -10 4 -18 -8 -26 -43 -29 -113 -128 -284 -198 -342 -54 -45 -54
-28 0 25 77 77 187 314 187 405 0 46 -7 51 -45 30 -25 -14 -35 -33 -60 -107
-17 -49 -39 -105 -49 -124 -19 -36 -84 -110 -98 -110 -12 0 3 33 27 60 32 35
79 133 104 215 18 60 18 71 6 78 -8 4 -15 20 -15 34 0 39 -13 20 -50 -72 -34
-87 -89 -167 -126 -184 -35 -16 -29 -2 15 35 21 19 48 53 59 77 24 52 56 146
51 151 -2 2 -16 6 -30 9 -24 6 -29 2 -48 -44 -25 -56 -85 -129 -108 -129 -21
0 -12 18 40 87 49 64 77 127 77 173 0 35 -6 37 -40 10 -45 -36 -96 -22 -84 23
3 16 2 27 -4 27 -6 0 -14 -15 -18 -32 -3 -18 -22 -61 -40 -96 -19 -35 -34 -76
-34 -91 0 -32 25 -71 46 -71 13 0 14 -8 9 -39 -7 -43 7 -81 29 -81 10 0 14
-15 14 -51 1 -58 14 -79 49 -79 21 0 23 -3 18 -22 -4 -13 -7 -25 -7 -28 -1
-35 5 -53 21 -69 15 -15 18 -28 14 -58 -4 -32 0 -45 22 -71 15 -17 41 -36 58
-40 29 -8 32 -11 29 -44 -2 -24 3 -41 15 -53 9 -10 18 -33 19 -52 1 -29 -2
-33 -25 -33 -37 0 -57 33 -36 63 8 12 15 35 15 52 0 26 -7 34 -50 58 -63 35
-82 62 -74 104 4 21 1 39 -10 55 -9 12 -16 41 -16 64 0 34 -4 43 -25 52 -27
13 -45 47 -45 90 0 15 -9 38 -20 52 -12 16 -20 41 -20 67 0 26 -5 45 -15 50
-29 17 -41 75 -40 190 1 85 6 118 18 137 23 34 22 35 -21 29 -21 -3 -55 0 -75
5 -33 9 -39 8 -43 -6 -20 -67 -53 -95 -82 -69 -24 22 -39 22 -47 -2 -3 -11
-19 -23 -37 -26 -27 -6 -34 -3 -51 19 l-20 27 -26 -25 c-37 -35 -97 -58 -132
-51 -29 7 -36 25 -23 59 9 23 26 20 19 -4 -9 -27 33 -37 73 -16 30 16 82 70
82 87 0 19 20 8 26 -15 3 -14 14 -32 24 -41 17 -16 19 -15 34 7 8 12 18 35 21
51 11 43 22 41 44 -8 11 -25 27 -45 35 -45 16 0 36 56 36 103 0 33 4 34 42 2
70 -59 164 -7 199 110 5 17 9 14 24 -20 12 -28 18 -70 20 -135 2 -62 6 -95 14
-98 7 -2 35 10 62 27 52 32 53 32 50 -36 -5 -81 37 -107 91 -56 l28 27 0 -45
c0 -69 40 -91 86 -48 28 26 44 18 44 -22 0 -70 49 -91 97 -43 l26 27 27 -33
c21 -26 32 -31 60 -28 50 5 62 34 55 131 -9 131 -89 277 -306 566 -85 113
-193 171 -321 171 -80 0 -150 -26 -169 -63 -21 -39 -2 -138 52 -274 11 -28 11
-34 -6 -52 -22 -26 -67 -27 -87 -3 -9 9 -43 72 -78 140 -97 192 -171 250 -305
240 -72 -6 -141 -40 -169 -83 -9 -14 -21 -25 -26 -25 -6 0 -10 52 -10 130 l0
130 493 -1 492 0 54 -107z m-829 -106 c0 -7 -64 -43 -90 -51 -25 -7 -25 -7 4
24 20 20 39 31 58 31 15 0 28 -2 28 -4z m-35 -105 c-31 -27 -120 -81 -136 -81
-12 0 -21 10 -25 25 -4 14 -5 27 -3 29 4 3 141 32 164 35 6 1 6 -2 0 -8z m-8
-171 c-1 -33 -3 -60 -3 -60 -4 0 -84 83 -82 84 27 14 75 35 80 35 4 1 6 -26 5
-59z m-510 -311 l44 -21 -61 -64 c-113 -118 -158 -260 -167 -525 -4 -124 -2
-175 12 -245 59 -303 190 -631 302 -758 19 -21 31 -42 26 -46 -4 -4 -42 -18
-83 -30 -84 -25 -153 -58 -220 -103 -68 -46 -185 -153 -227 -207 -21 -27 -41
-49 -45 -50 -5 0 -8 466 -8 1035 l0 1035 192 0 c175 0 196 -2 235 -21z m-2887
-68 c0 -4 -16 -7 -35 -7 -29 1 -32 3 -20 12 16 12 55 8 55 -5z m3394 -108 c3
-10 10 -38 16 -63 17 -63 145 -280 202 -342 46 -50 57 -68 41 -68 -28 0 -131
138 -214 285 -22 38 -35 54 -37 43 -5 -25 80 -167 169 -284 17 -23 29 -49 27
-59 -3 -18 -180 222 -198 269 -5 14 -11 26 -13 26 -12 0 -67 -23 -67 -28 0 -3
17 -28 39 -56 55 -74 171 -265 171 -284 0 -8 -29 29 -64 84 -35 54 -83 126
-107 158 -42 58 -43 59 -57 38 -8 -12 -21 -22 -28 -22 -8 0 -14 -3 -14 -7 0
-5 35 -59 78 -121 121 -177 169 -255 175 -287 6 -36 16 -48 -116 150 -51 77
-109 162 -127 188 l-35 48 -8 -30 c-4 -17 -16 -35 -27 -41 -18 -9 -17 -14 22
-87 22 -42 57 -102 78 -133 37 -54 134 -169 152 -181 6 -4 8 -15 6 -25 -4 -16
-15 -8 -63 41 -69 72 -159 206 -232 348 -17 31 -34 36 -26 7 4 -14 -5 -29 -26
-49 l-32 -30 42 -78 c111 -207 172 -298 243 -360 49 -43 59 -64 26 -56 -48 13
-169 171 -265 348 -22 39 -48 87 -59 107 -12 21 -24 38 -27 38 -4 0 -10 -15
-13 -33 -3 -19 -15 -43 -25 -54 -19 -20 -19 -21 3 -89 25 -76 77 -181 128
-261 46 -72 135 -162 167 -169 44 -9 51 -13 51 -24 0 -5 -18 -10 -41 -10 -35
0 -47 6 -93 53 -89 89 -162 208 -220 362 -43 112 -45 115 -60 115 -8 0 -25
-14 -37 -31 l-22 -31 22 -80 c42 -157 178 -434 243 -495 13 -13 42 -32 64 -42
31 -15 35 -21 22 -26 -33 -13 -86 15 -129 68 -64 80 -239 462 -239 521 0 15
-26 46 -39 46 -12 0 -4 -69 20 -167 42 -170 160 -437 235 -529 31 -37 43 -59
36 -66 -15 -15 -95 90 -146 192 -58 113 -130 315 -155 431 -22 104 -39 219
-33 219 2 0 13 -11 24 -25 11 -14 29 -25 40 -25 21 0 57 36 58 58 0 7 15 12
41 12 36 0 41 3 55 35 7 19 14 46 14 60 0 24 3 26 31 20 41 -9 69 16 69 62 0
34 1 34 37 31 32 -2 39 1 50 22 7 14 13 37 13 53 0 23 4 27 30 27 23 0 33 7
45 30 8 16 15 38 15 50 0 14 6 20 23 20 52 0 74 68 53 163 -5 24 -5 37 2 37 6
0 13 -8 16 -17z m-2554 -263 c18 -6 8 -8 -39 -9 -117 -2 -253 -53 -374 -139
-28 -20 -48 -31 -43 -24 12 20 107 87 166 117 112 57 220 78 290 55z m176 -35
c19 -30 10 -48 -22 -42 -17 3 -25 -1 -30 -15 -4 -13 -11 -17 -25 -13 -14 5
-19 2 -19 -12 0 -34 -15 -46 -38 -32 -28 17 -43 2 -17 -17 11 -8 66 -56 123
-107 117 -104 155 -127 217 -135 l44 -4 40 81 c64 126 138 193 198 178 11 -2
2 -7 -21 -12 -57 -12 -116 -76 -172 -186 -42 -86 -46 -97 -39 -143 14 -110
110 -258 209 -324 l44 -29 -51 -12 c-123 -31 -207 -89 -207 -144 l0 -28 -41
23 c-22 12 -138 119 -257 236 -257 253 -278 267 -400 266 -79 -2 -86 -3 -163
-48 -66 -39 -83 -45 -95 -35 -14 11 -151 171 -182 210 -10 13 -6 21 19 47 39
40 78 42 134 7 27 -16 55 -24 86 -25 39 0 48 4 59 25 12 23 19 25 76 25 53 0
65 3 74 20 9 17 8 20 -14 20 -13 0 -34 9 -47 19 l-24 19 48 -5 c30 -4 52 -1
62 7 23 19 18 29 -16 28 -16 -1 -38 6 -47 15 -21 22 -9 22 69 2 67 -18 240
-17 246 0 2 6 -6 21 -17 33 -11 11 -20 24 -20 28 0 7 54 0 83 -11 25 -10 22
21 -3 37 -11 7 -20 16 -20 20 0 14 47 8 60 -7 19 -23 33 -18 26 10 -5 18 -2
25 8 25 8 0 18 -4 21 -10 3 -5 13 -10 22 -10 14 0 14 3 -1 25 -9 14 -12 25 -6
25 5 0 17 -11 26 -25z m-942 -178 c-11 -5 -29 -19 -41 -30 -13 -11 -25 -18
-28 -15 -9 9 65 69 77 62 7 -4 3 -11 -8 -17z m3634 -25 c10 -7 9 -18 -6 -53
-10 -24 -22 -57 -26 -73 -6 -23 -4 -27 8 -23 25 10 20 -42 -6 -71 l-23 -24 25
4 c14 1 24 -1 24 -7 -1 -5 -5 -27 -8 -47 -8 -41 -5 -44 24 -26 10 7 22 9 25 6
15 -15 -9 -48 -55 -78 -51 -33 -96 -74 -109 -100 -5 -8 -4 -31 1 -50 9 -31 11
-33 20 -15 14 25 72 77 109 99 l30 18 -16 -37 c-17 -43 -20 -91 -5 -100 14 -9
45 31 65 83 9 23 20 42 24 42 5 0 11 -21 15 -47 l6 -47 -87 -89 c-98 -98 -170
-150 -281 -203 -73 -35 -221 -88 -228 -82 -1 2 7 24 18 49 19 40 27 47 65 57
59 16 84 57 81 131 -1 44 2 55 18 63 35 19 43 38 37 88 -5 43 -3 49 16 55 46
14 62 79 36 147 -3 7 5 17 17 23 20 9 23 18 24 68 1 32 6 63 13 70 6 6 11 29
11 52 0 37 3 42 32 50 21 6 34 17 36 30 6 35 42 54 70 37z m-3588 -16 c0 -10
-63 -66 -68 -61 -6 6 48 65 60 65 4 0 8 -2 8 -4z m1585 -127 c-25 -71 -20
-139 16 -192 26 -40 30 -53 24 -86 -3 -22 -13 -47 -20 -58 -13 -17 -14 -16
-15 10 0 15 -10 47 -21 70 -33 63 -36 150 -9 231 12 36 26 66 30 66 5 0 3 -19
-5 -41z m2349 17 c31 -49 -5 -77 -58 -45 -26 15 -39 17 -59 10 -36 -14 -70
-66 -61 -93 5 -13 8 -27 9 -32 0 -14 25 -19 25 -6 0 26 42 70 66 70 13 0 24
-4 24 -10 0 -5 -6 -10 -13 -10 -7 0 -25 -12 -40 -28 -22 -23 -25 -33 -19 -57
8 -27 36 -51 30 -24 -3 12 92 92 100 84 3 -2 -9 -21 -26 -42 -16 -21 -31 -46
-33 -55 -3 -14 -124 -148 -134 -148 -2 0 2 13 8 30 9 24 7 38 -11 82 -23 56
-28 88 -13 88 4 0 7 21 4 46 -3 36 2 56 22 90 14 23 25 50 25 58 0 13 13 16
69 16 62 0 70 -2 85 -24z m-2561 -133 c-13 -75 -6 -198 12 -234 10 -18 12 -28
5 -24 -43 26 -63 164 -39 261 15 60 33 57 22 -3z m125 -225 c26 -61 16 -62
-22 -3 -26 42 -28 50 -20 103 l8 57 6 -55 c4 -30 16 -76 28 -102z m-97 -399
c-12 -12 -25 -18 -28 -15 -9 9 18 36 35 36 12 0 11 -5 -7 -21z m54 -9 c-10
-11 -20 -18 -23 -15 -7 6 18 35 31 35 5 0 2 -9 -8 -20z"/>
<path d="M3480 7130 c-30 -16 -69 -29 -87 -30 -41 0 -51 -17 -19 -31 19 -9 39
-9 82 0 92 18 100 16 159 -44 42 -42 50 -55 36 -55 -11 0 -31 15 -46 33 -67
79 -103 77 -196 -14 -43 -42 -83 -72 -101 -76 -38 -8 -43 -18 -16 -37 41 -29
67 -20 130 44 32 33 61 60 64 60 4 0 22 -10 41 -21 20 -13 53 -22 79 -23 44
-1 60 -18 28 -30 -26 -10 -53 -7 -79 10 -39 25 -91 4 -175 -71 -46 -41 -81
-65 -96 -65 -29 0 -30 -11 -6 -33 12 -11 36 -17 68 -17 45 0 57 5 115 50 50
39 72 50 101 50 47 0 88 -16 88 -33 0 -11 -14 -13 -69 -9 -60 4 -73 2 -100
-18 -47 -33 -71 -88 -71 -162 0 -37 -6 -74 -15 -88 -27 -47 -28 -52 -14 -61
23 -14 27 -11 56 38 18 32 30 69 35 115 5 49 13 77 30 97 22 27 27 29 95 27
72 -1 105 -18 60 -30 -12 -4 -39 -21 -61 -40 -33 -28 -39 -39 -39 -77 -1 -24
2 -70 7 -101 8 -55 7 -58 -20 -83 -23 -22 -26 -28 -14 -35 27 -17 51 -10 81
23 29 30 30 35 23 87 -13 105 -10 121 26 152 32 26 60 36 60 21 0 -4 -16 -21
-36 -40 -35 -32 -36 -34 -28 -80 5 -27 9 -71 8 -100 -1 -62 18 -77 41 -33 10
20 14 52 13 99 -3 62 0 73 19 93 32 32 51 12 29 -30 -23 -44 -21 -124 4 -164
11 -19 20 -51 20 -74 0 -54 22 -75 39 -36 24 52 25 124 2 174 -22 50 -27 88
-11 88 5 0 12 -12 16 -27 11 -54 24 -74 59 -89 39 -16 83 -18 117 -5 25 9 48
64 48 115 0 24 -3 26 -43 26 -60 0 -79 16 -75 65 3 37 5 40 36 43 30 3 32 1
32 -27 0 -26 4 -31 23 -31 31 0 67 64 67 118 0 33 -6 45 -31 66 -17 14 -34 26
-37 26 -4 0 -38 30 -77 67 -78 74 -115 93 -177 93 -61 0 -97 27 -142 103 -35
60 -42 67 -70 67 -17 -1 -56 -14 -86 -30z m454 -259 c16 -17 16 -19 -6 -24
-22 -6 -58 16 -58 35 0 16 47 8 64 -11z"/>
<path d="M3348 6694 c-21 -11 -32 -30 -48 -80 -11 -36 -29 -78 -40 -94 -27
-38 -26 -40 16 -40 28 0 44 8 70 34 31 31 34 39 34 93 0 32 5 64 10 69 20 20
-12 34 -42 18z"/>
<path d="M5574 5551 c-61 -28 -107 -80 -134 -150 -38 -101 -26 -178 41 -260
38 -48 83 -71 139 -71 38 0 42 3 56 36 8 20 18 58 21 85 l6 48 -35 -5 c-40 -7
-91 15 -108 45 -14 27 -12 101 3 131 20 39 58 56 94 41 53 -22 70 -90 28 -109
-33 -15 -32 -26 5 -52 28 -20 30 -26 30 -81 0 -33 -7 -75 -14 -94 -18 -41 -8
-45 27 -10 40 40 66 108 76 193 9 78 2 107 -21 84 -21 -21 -28 -13 -28 28 0
44 -26 104 -56 132 -30 26 -83 30 -130 9z"/>
<path d="M3840 5665 c-16 -19 -3 -37 21 -30 25 8 103 -29 129 -62 20 -25 20
-40 20 -651 l0 -625 -45 -41 c-25 -23 -45 -45 -45 -49 0 -4 88 -7 195 -7 107
0 195 3 195 7 0 4 -20 26 -45 49 l-45 41 2 279 3 279 295 0 295 0 3 -265 c3
-296 2 -304 -63 -349 -19 -13 -35 -27 -35 -32 0 -5 90 -9 200 -9 110 0 200 3
200 6 0 3 -22 27 -50 53 l-50 47 0 608 c0 429 3 614 11 629 22 43 63 77 111
93 26 8 48 20 48 25 0 17 -46 20 -279 17 -259 -3 -283 -10 -189 -51 99 -44 98
-42 98 -323 l0 -244 -303 0 -303 0 4 253 c4 283 6 289 76 314 46 15 68 32 60
44 -3 5 -117 9 -253 9 -205 0 -251 -3 -261 -15z"/>
<path d="M2815 4728 c-32 -19 -54 -51 -55 -81 0 -15 -6 -38 -14 -50 -8 -12
-16 -51 -18 -87 -4 -51 -11 -75 -34 -110 -44 -67 -56 -80 -95 -100 -44 -23
-87 -72 -95 -108 -10 -48 -27 -87 -42 -99 -8 -7 -12 -19 -8 -28 4 -12 10 -14
25 -5 46 24 54 0 19 -61 -28 -51 -14 -63 23 -19 29 34 29 34 29 9 0 -14 -7
-34 -15 -45 -16 -22 -20 -54 -6 -54 15 0 79 72 92 102 30 73 40 -51 13 -160
-9 -35 -14 -65 -11 -68 10 -11 36 10 62 51 15 25 29 45 31 45 7 0 -17 -54 -36
-80 -17 -24 -18 -29 -5 -40 19 -16 79 20 107 64 l20 31 -6 -30 c-3 -16 -8 -40
-12 -52 -6 -23 -6 -23 39 -7 25 8 57 26 70 38 23 22 47 80 47 116 0 21 18 -1
22 -28 1 -12 8 -23 13 -22 9 0 12 104 6 243 -4 89 63 161 136 147 56 -11 135
-31 161 -41 31 -12 109 -11 133 1 10 6 19 17 19 25 0 12 -8 14 -39 9 -52 -8
-100 9 -141 51 l-34 35 21 27 c18 26 25 28 74 24 30 -2 67 -10 82 -18 25 -12
27 -16 15 -31 -7 -9 -19 -21 -25 -25 -41 -26 27 -38 75 -13 15 8 38 26 51 40
31 33 17 51 -47 61 -26 4 -98 29 -160 56 -92 40 -116 47 -131 37 -25 -15 -51
-4 -44 20 4 15 -5 22 -49 36 -65 20 -93 39 -143 94 -31 35 -44 42 -68 40 -40
-4 -46 -24 -10 -31 15 -4 39 -16 53 -27 l25 -20 -36 0 c-25 0 -44 8 -63 25
-45 41 -29 85 30 85 52 0 270 -97 325 -144 71 -61 173 -116 243 -130 57 -12
62 -12 68 6 4 10 17 18 30 18 22 1 22 1 5 15 -11 7 -38 17 -60 20 -68 11 -139
48 -202 107 -75 70 -175 117 -261 123 -34 3 -74 9 -89 15 -35 13 -85 12 -110
-2z"/>
<path d="M3538 4433 c-22 -6 -23 -26 -2 -44 13 -10 17 -10 25 2 11 17 12 49 2
48 -5 -1 -16 -3 -25 -6z"/>
<path d="M8280 4332 c0 -4 6 -16 13 -27 7 -11 22 -42 32 -69 34 -92 7 -269
-66 -426 -67 -143 -228 -437 -275 -500 -24 -33 -44 -63 -44 -66 0 -14 -156
-227 -216 -295 -24 -28 -76 -90 -114 -138 -88 -112 -373 -389 -493 -480 -176
-134 -218 -166 -244 -189 -15 -12 -49 -36 -77 -53 -28 -16 -79 -49 -113 -72
-35 -23 -84 -55 -109 -71 -74 -46 -196 -154 -226 -200 -53 -79 -38 -102 128
-194 60 -34 122 -72 137 -84 l28 -23 -48 -35 c-105 -78 -322 -205 -495 -292
-193 -95 -289 -135 -453 -186 -169 -52 -210 -63 -296 -77 -46 -8 -149 -27
-229 -44 -80 -16 -216 -35 -302 -41 -231 -19 -674 -1 -873 35 -49 8 -128 22
-175 29 -88 14 -329 81 -510 142 -97 33 -237 96 -434 195 -92 47 -275 170
-363 245 l-63 53 98 55 c149 83 182 110 182 147 0 68 -121 185 -328 315 -184
116 -214 138 -481 346 -128 100 -378 343 -461 448 -36 46 -88 109 -116 141
-65 74 -161 200 -199 262 -17 26 -48 73 -71 105 -46 64 -66 99 -168 292 -150
282 -180 363 -192 525 -6 75 -5 84 25 149 17 38 31 70 31 72 0 2 -23 -7 -50
-18 -98 -41 -174 -159 -255 -396 l-39 -114 -28 34 c-16 18 -67 110 -114 203
-87 173 -127 236 -141 221 -24 -24 9 -354 53 -536 43 -174 206 -512 362 -750
349 -531 791 -964 1348 -1320 13 -8 24 -17 24 -20 0 -3 -53 -43 -117 -90 -64
-47 -129 -98 -145 -114 -66 -67 -24 -141 230 -400 322 -327 707 -570 1217
-765 221 -85 564 -168 875 -211 242 -33 782 -45 950 -22 41 6 116 16 165 23
381 49 716 138 1045 279 352 150 658 340 910 565 136 122 287 276 326 334 13
20 36 51 49 70 36 48 34 109 -2 143 -16 14 -41 34 -58 44 -16 10 -46 32 -65
49 -19 16 -59 46 -87 65 -29 19 -53 37 -53 40 0 3 12 12 28 21 52 32 260 177
328 230 208 161 275 219 435 379 318 317 547 620 737 976 51 94 92 174 92 177
0 4 18 44 39 89 67 142 102 282 126 508 16 142 16 232 1 247 -12 13 -50 -48
-120 -194 -41 -83 -93 -176 -116 -207 l-43 -57 -42 123 c-81 237 -161 358
-258 391 -26 9 -47 13 -47 9z m-7659 -130 c-16 -30 -13 -98 9 -214 18 -94 30
-124 141 -345 160 -321 303 -538 540 -823 133 -160 385 -413 515 -517 153
-123 421 -314 593 -424 90 -57 201 -168 201 -201 0 -32 1 -31 -145 -115 -66
-39 -155 -91 -198 -118 -43 -26 -79 -46 -80 -44 -1 2 -11 23 -22 46 -28 58
-157 165 -312 259 -79 47 -214 141 -278 193 -38 31 -104 82 -146 113 -157 116
-427 378 -544 527 -32 41 -77 96 -101 122 -23 27 -62 77 -85 111 -23 35 -52
74 -65 88 -72 78 -333 539 -398 702 -50 125 -116 446 -116 563 0 11 27 -36 60
-103 33 -68 60 -126 60 -129 0 -8 90 -122 113 -144 l22 -20 17 21 c10 12 23
41 29 63 32 123 118 324 161 378 32 40 48 46 29 11z m7845 -92 c15 -30 50
-122 79 -205 64 -186 69 -189 149 -82 31 40 83 130 116 200 54 114 80 158 66
110 -3 -10 -10 -63 -16 -117 -21 -192 -77 -396 -150 -546 -100 -204 -291 -531
-344 -590 -13 -14 -42 -53 -64 -86 -23 -34 -74 -100 -114 -147 -40 -46 -90
-106 -111 -132 -104 -133 -370 -385 -536 -510 -59 -44 -128 -98 -154 -119 -41
-33 -231 -161 -334 -224 -21 -13 -52 -35 -69 -50 -17 -15 -54 -45 -82 -67 -31
-24 -60 -58 -73 -85 -12 -25 -23 -47 -25 -48 -1 -2 -29 13 -61 34 -32 21 -74
47 -94 59 -211 120 -262 152 -266 163 -16 42 94 159 222 235 39 23 97 62 130
85 33 23 97 68 142 100 515 360 958 845 1256 1372 194 344 251 497 252 678 l0
93 27 -33 c16 -18 40 -58 54 -88z m-1330 -2542 c121 -86 157 -118 135 -118
-27 0 -173 -51 -228 -79 -28 -14 -61 -21 -97 -21 -76 0 -86 6 -86 47 0 30 9
44 63 95 62 61 134 118 147 118 4 0 33 -19 66 -42z m-5160 4 c124 -91 185
-170 162 -214 -13 -27 -125 -25 -181 3 -65 33 -209 81 -229 76 -10 -3 -18 -1
-18 4 0 5 4 9 10 9 5 0 24 13 42 29 36 31 159 119 169 120 3 1 24 -12 45 -27z
m399 -152 c7 -11 204 -158 280 -210 52 -35 317 -171 442 -228 136 -62 483
-167 663 -201 426 -82 916 -95 1300 -35 233 36 494 98 680 160 268 91 721 332
890 475 34 29 54 39 68 35 10 -4 54 -31 98 -61 78 -54 79 -55 152 -55 45 0 87
6 110 16 119 52 211 84 239 84 74 0 81 -25 26 -103 -62 -89 -93 -124 -217
-246 -215 -212 -410 -360 -633 -482 -81 -44 -157 -86 -168 -93 -57 -36 -448
-199 -527 -220 -29 -8 -82 -23 -118 -34 -114 -35 -242 -64 -360 -83 -63 -10
-166 -27 -229 -38 -197 -35 -502 -45 -828 -27 -155 9 -292 20 -305 24 -13 5
-70 15 -128 22 -213 25 -723 167 -875 244 -16 8 -82 37 -145 65 -64 27 -145
66 -180 86 -36 21 -81 46 -100 57 -102 59 -407 281 -510 372 -87 77 -253 252
-306 323 -55 74 -66 106 -38 117 43 17 109 -1 286 -78 23 -10 65 -16 111 -16
l73 0 104 70 c102 68 132 80 145 60z"/>
<path d="M1280 2672 c0 -10 4 -22 10 -28 7 -7 -20 -37 -80 -89 -49 -44 -97
-83 -105 -88 -20 -11 -19 -29 4 -49 10 -9 23 -23 27 -31 20 -33 86 -67 133
-67 93 0 192 71 207 148 10 48 -28 115 -98 173 -61 51 -98 63 -98 31z m113
-130 c19 -32 19 -36 4 -68 -21 -43 -91 -94 -130 -94 -16 0 -45 9 -64 21 l-34
21 48 41 c26 23 66 59 88 79 22 21 47 37 54 35 8 -1 24 -17 34 -35z"/>
<path d="M1497 2466 c-3 -8 0 -20 8 -26 12 -10 -5 -28 -90 -102 -58 -49 -105
-96 -105 -104 0 -8 12 -19 26 -24 22 -9 32 -5 70 26 48 40 48 40 34 -35 -11
-60 -4 -79 36 -106 26 -17 30 -17 78 0 28 10 56 22 63 27 8 6 22 2 41 -12 l30
-22 -26 -45 c-20 -37 -23 -49 -14 -68 15 -32 69 -60 86 -45 10 8 15 4 19 -17
13 -62 107 -123 171 -111 19 4 22 -1 22 -33 2 -51 31 -96 79 -119 53 -26 79
-25 140 4 81 38 135 107 135 172 0 84 -112 160 -181 124 -23 -13 -25 -3 -3 21
32 35 -15 102 -95 135 -45 19 -70 18 -135 -6 -55 -21 -126 -85 -126 -115 0
-17 -25 -20 -35 -5 -8 13 31 80 95 164 28 36 50 69 50 74 0 5 -8 17 -19 26
-17 16 -23 15 -97 -9 -44 -15 -87 -30 -96 -36 -10 -5 -25 -9 -33 -9 -9 0 -28
-6 -43 -14 -15 -7 -37 -17 -49 -20 -20 -6 -23 -4 -23 17 0 14 3 37 6 53 5 28
8 29 59 29 43 0 59 5 79 24 52 49 25 114 -72 175 -46 29 -77 33 -85 12z m107
-123 c-17 -27 -39 -36 -70 -29 l-29 8 39 34 c36 31 41 33 55 19 12 -11 13 -20
5 -32z m136 -188 c-14 -17 -40 -20 -40 -6 0 8 18 16 44 20 5 0 3 -6 -4 -14z
m279 -110 c34 -17 46 -42 30 -61 -6 -8 -9 -24 -5 -37 4 -19 -2 -30 -33 -55
-22 -18 -43 -41 -46 -53 -6 -17 -9 -18 -18 -6 -7 7 -32 20 -56 27 -56 18 -78
49 -61 89 15 37 50 70 98 93 46 21 56 22 91 3z m211 -205 c0 -34 -55 -102
-101 -126 -37 -19 -83 -18 -100 2 -34 41 14 123 94 159 46 22 53 23 79 9 21
-11 28 -22 28 -44z"/>
<path d="M8405 3763 c-53 -52 -44 -182 14 -213 30 -15 67 -12 107 9 20 11 42
17 49 15 22 -9 27 -54 10 -81 -16 -24 -17 -24 -37 -6 -19 17 -20 17 -34 -2
-12 -16 -12 -21 6 -40 11 -12 20 -24 20 -28 0 -20 -29 2 -115 91 -91 92 -96
96 -110 78 -8 -11 -15 -26 -15 -33 0 -7 29 -44 64 -83 36 -38 72 -90 81 -114
20 -52 14 -96 -14 -96 -16 0 -77 59 -154 148 -15 18 -32 32 -37 32 -6 0 -19
-15 -30 -32 -35 -57 -20 -109 21 -72 10 9 19 12 19 6 0 -17 119 -141 152 -158
56 -29 114 28 106 105 -3 35 -1 40 14 35 20 -6 58 28 58 52 0 9 11 29 25 46
53 62 54 160 2 216 -26 28 -54 28 -111 1 -52 -26 -76 -20 -76 18 0 43 13 57
39 44 43 -24 57 20 18 57 -28 26 -50 28 -72 5z"/>
<path d="M8144 3281 c-36 -22 -72 -67 -102 -126 -11 -22 -30 -48 -41 -57 -34
-29 -25 -55 39 -122 33 -35 60 -65 60 -67 0 -3 -39 3 -87 13 -129 26 -135 25
-162 -23 -17 -30 -20 -44 -12 -52 9 -9 17 -8 32 1 18 12 24 11 46 -10 37 -34
123 -144 123 -157 0 -31 -61 -5 -198 87 -61 41 -65 42 -83 26 -11 -9 -19 -23
-19 -30 0 -16 78 -224 90 -239 4 -5 15 -34 24 -62 20 -59 48 -71 67 -29 10 21
7 33 -20 79 -36 64 -36 65 -10 96 l20 24 45 -21 c24 -12 53 -22 63 -22 22 0
91 78 91 102 0 10 -30 50 -67 89 -55 59 -63 71 -43 66 14 -3 65 -13 114 -22
87 -16 89 -16 109 3 20 20 19 20 -82 127 -94 99 -100 107 -84 123 15 15 22 10
109 -82 62 -66 98 -97 108 -93 8 3 29 25 46 48 70 98 63 193 -23 285 -61 65
-102 77 -153 45z m101 -92 c64 -57 81 -119 50 -180 l-16 -29 -84 86 c-47 48
-85 91 -85 96 0 19 50 58 74 58 14 0 41 -14 61 -31z m-387 -536 c-16 -19 -22
-16 -34 16 l-11 29 28 -17 c21 -12 25 -19 17 -28z"/>
<path d="M7510 2511 c-34 -33 -40 -71 -12 -71 10 0 23 5 29 11 7 7 37 -19 103
-93 51 -57 96 -103 100 -103 4 0 35 26 69 57 69 65 78 98 38 136 -39 37 -70
21 -46 -24 11 -21 10 -27 -11 -49 -13 -14 -29 -25 -36 -25 -6 0 -46 38 -89 85
-100 110 -107 114 -145 76z"/>
<path d="M7339 2361 c-16 -16 -29 -37 -29 -46 0 -21 26 -30 44 -16 11 9 34
-10 114 -95 l99 -107 19 22 c11 12 40 38 67 57 55 40 60 67 21 114 -24 27 -29
30 -41 17 -12 -12 -13 -19 -3 -37 10 -20 8 -25 -22 -51 l-33 -28 -29 32 c-71
79 -159 167 -168 167 -5 0 -23 -13 -39 -29z"/>
<path d="M7200 2255 c-19 -21 -22 -29 -13 -43 6 -9 19 -16 30 -14 15 2 47 -26
116 -100 95 -101 96 -102 116 -84 12 11 21 24 21 29 0 8 -74 93 -178 205 -36
39 -61 40 -92 7z"/>
<path d="M7126 2192 c-4 -11 -45 -49 -91 -86 -111 -88 -115 -96 -71 -143 33
-36 36 -37 52 -21 17 17 17 18 -2 39 -18 20 -18 21 0 35 17 12 25 9 75 -35 31
-27 76 -70 101 -95 24 -25 49 -46 56 -46 6 0 19 10 30 21 19 22 19 22 -81 115
l-100 94 29 23 c24 19 29 32 30 67 1 45 -18 66 -28 32z"/>
<path d="M6820 1955 c-20 -21 -30 -40 -27 -49 7 -19 28 -21 44 -5 9 9 38 -12
115 -85 57 -53 108 -96 114 -96 6 0 19 10 30 21 19 21 19 21 -96 130 -63 59
-122 110 -132 112 -9 3 -30 -9 -48 -28z"/>
<path d="M6708 1890 c-20 -21 -65 -57 -99 -81 -85 -60 -91 -71 -54 -109 33
-34 47 -37 66 -14 11 14 11 18 -4 29 -16 11 -16 13 1 28 18 17 34 6 187 -127
l56 -49 21 21 c19 18 20 24 9 44 -7 13 -39 43 -72 67 -32 25 -71 57 -85 72
l-27 28 32 27 c27 22 32 33 29 62 -2 20 -7 36 -13 37 -5 1 -27 -15 -47 -35z"/>
<path d="M2283 1264 c-4 -10 1 -22 12 -30 17 -13 17 -14 0 -41 -10 -15 -47
-65 -82 -111 -34 -45 -63 -86 -63 -91 0 -15 118 -89 158 -101 50 -13 66 -13
110 5 96 41 147 147 107 224 -19 39 -83 92 -154 130 -67 35 -79 37 -88 15z
m144 -116 c44 -47 48 -71 23 -123 -28 -58 -63 -85 -109 -85 -33 0 -101 31
-101 46 0 13 136 194 146 194 5 0 24 -15 41 -32z"/>
<path d="M6610 1195 c-10 -12 -10 -42 -3 -133 5 -64 8 -119 7 -120 -1 -2 -42
28 -91 67 -48 39 -95 71 -104 71 -8 0 -33 -15 -54 -33 -43 -38 -41 -62 4 -52
26 5 30 2 54 -53 47 -105 58 -143 46 -158 -6 -8 -15 -14 -20 -14 -16 0 -92 76
-144 144 -50 66 -80 81 -103 54 -8 -11 -26 -173 -24 -218 3 -49 -11 -120 -23
-120 -13 0 -51 88 -90 208 -18 55 -39 67 -69 37 -13 -14 -12 -23 10 -87 30
-90 32 -165 3 -202 -25 -32 -54 -33 -73 -3 -8 12 -26 64 -40 114 -13 51 -27
97 -31 103 -17 28 -120 -14 -108 -45 4 -12 13 -15 29 -11 20 5 25 2 30 -21 36
-160 56 -203 104 -223 22 -9 37 -9 64 0 38 12 86 61 86 88 0 12 4 11 23 -6 29
-28 37 -27 97 3 l49 25 3 67 c3 64 5 68 36 86 l32 19 40 -36 c51 -46 82 -54
118 -30 15 11 39 24 55 31 35 15 34 35 -3 119 -17 37 -29 68 -28 69 2 2 36
-24 77 -56 40 -33 78 -58 85 -56 7 3 10 40 9 117 l-2 113 40 -66 c48 -80 68
-93 107 -73 63 33 79 106 17 78 -14 -7 -28 -12 -30 -12 -6 0 -80 122 -109 178
-27 54 -52 66 -76 37z m-340 -355 c8 -15 6 -21 -10 -30 -18 -10 -20 -8 -20 25
0 37 12 39 30 5z"/>
<path d="M2595 1034 c-44 -23 -72 -52 -95 -99 -42 -87 -16 -162 71 -208 41
-22 63 -28 92 -24 122 16 207 175 146 274 -40 65 -145 93 -214 57z m132 -49
c70 -49 -1 -225 -90 -225 -98 0 -104 138 -9 217 31 27 69 29 99 8z"/>
<path d="M2856 934 c-8 -20 1 -34 20 -34 8 0 14 -3 14 -7 0 -4 -28 -63 -61
-131 -36 -71 -58 -127 -53 -132 5 -5 21 -11 35 -15 24 -6 28 -2 50 49 13 31
26 56 29 56 4 0 11 -26 18 -57 16 -75 44 -121 79 -128 15 -4 36 -10 45 -16 47
-25 81 2 113 88 29 79 35 73 35 -34 0 -142 8 -146 101 -49 40 42 74 74 76 72
2 -2 -5 -36 -17 -74 -30 -97 -9 -130 76 -120 37 4 42 41 7 46 -13 2 -23 10
-23 18 0 8 18 69 40 135 22 66 38 124 35 130 -4 5 -17 9 -31 9 -18 0 -48 -24
-109 -87 l-84 -88 -1 85 c0 133 -7 158 -44 169 -61 19 -81 18 -84 -6 -2 -15 2
-23 12 -23 8 0 17 -4 20 -8 6 -11 -76 -184 -95 -199 -23 -19 -54 8 -73 64 -21
61 -20 73 4 73 52 0 100 49 100 101 0 36 -51 74 -135 102 -94 32 -91 31 -99
11z m137 -78 c20 -15 23 -56 5 -74 -11 -11 -78 -18 -78 -7 0 10 44 95 49 95 4
0 14 -7 24 -14z"/>
<path d="M5597 746 c-21 -8 -48 -22 -59 -33 -52 -46 -64 -157 -25 -233 36 -71
55 -80 187 -84 63 -2 152 -7 196 -11 100 -9 144 -2 184 32 33 27 73 96 63 107
-14 14 -35 4 -64 -28 -40 -46 -101 -60 -218 -51 l-88 7 19 36 c45 89 0 221
-89 258 -40 17 -57 17 -106 0z m92 -75 c53 -57 67 -156 26 -196 -64 -64 -155
12 -155 130 0 86 75 124 129 66z"/>
<path d="M3494 706 c-7 -19 3 -36 22 -36 8 0 14 -3 14 -7 0 -7 -66 -230 -75
-255 -9 -24 42 -45 61 -26 15 16 84 252 84 290 0 27 -5 30 -68 43 -24 5 -34 3
-38 -9z"/>
<path d="M5408 689 c-22 -12 -23 -69 -4 -151 7 -32 11 -58 7 -58 -3 0 -45 39
-92 86 -83 82 -89 86 -121 80 -19 -3 -43 -12 -53 -20 -16 -11 -17 -17 -7 -29
7 -8 21 -13 31 -10 17 4 20 -3 26 -64 14 -150 11 -173 -19 -173 -29 0 -31 8
-46 154 -6 60 -13 113 -16 118 -8 12 -42 10 -51 -4 -4 -7 -8 -61 -8 -120 0
-92 -3 -110 -21 -135 -26 -34 -72 -43 -91 -17 -9 12 -13 54 -13 131 0 99 -2
113 -19 122 -12 7 -30 7 -51 1 -17 -5 -44 -7 -59 -4 -50 10 -63 -15 -59 -117
2 -49 0 -89 -3 -89 -4 0 -37 43 -74 96 -38 53 -74 98 -82 101 -7 3 -30 1 -50
-4 -28 -6 -38 -14 -38 -28 0 -13 7 -20 20 -20 19 0 20 -6 17 -85 -2 -47 -10
-109 -18 -139 -17 -61 -10 -77 30 -67 16 4 28 15 31 29 5 26 14 119 15 160 0
25 9 17 80 -75 59 -75 87 -103 103 -103 21 0 22 3 24 125 4 157 6 170 38 170
25 0 25 0 25 -99 0 -115 12 -156 51 -176 49 -26 88 -17 141 33 24 22 28 23 34
8 10 -27 39 -37 71 -25 15 7 40 11 55 10 47 -2 61 23 53 98 -3 36 -9 82 -12
101 -6 34 -5 34 92 -58 144 -136 158 -127 121 78 -10 52 -15 111 -12 131 5 28
2 38 -10 43 -19 7 -15 8 -36 -5z"/>
<path d="M3620 661 c0 -10 9 -21 19 -24 19 -5 19 -6 0 -86 -10 -45 -27 -106
-38 -137 l-18 -55 24 -10 c13 -5 31 -9 40 -9 8 0 44 -8 79 -17 62 -17 65 -17
83 2 29 30 37 73 16 81 -12 5 -23 0 -34 -15 -16 -20 -20 -21 -69 -10 -41 10
-51 16 -47 28 4 9 9 29 12 44 4 19 10 26 20 23 42 -16 89 -17 102 -2 18 21 6
35 -38 42 -60 10 -64 15 -51 63 9 35 14 41 31 37 10 -4 28 -9 39 -12 16 -4 19
-11 14 -26 -4 -13 -1 -24 7 -29 22 -14 29 -11 41 16 16 35 54 31 50 -5 -7 -52
-35 -156 -53 -194 -11 -22 -19 -45 -19 -52 0 -20 39 -23 59 -6 18 16 51 128
51 172 0 36 14 21 50 -52 59 -120 87 -160 112 -156 20 3 24 14 39 116 9 63 25
134 34 159 15 38 15 47 4 54 -43 27 -65 -3 -80 -112 l-12 -92 -59 116 c-47 95
-62 117 -81 118 -12 1 -35 2 -52 3 -16 1 -37 5 -45 9 -26 12 -159 37 -196 37
-27 0 -34 -4 -34 -19z"/>
<path d="M4238 584 c-29 -15 -58 -61 -58 -91 0 -30 28 -62 86 -99 54 -35 66
-58 42 -82 -29 -29 -98 -6 -98 33 0 34 -37 35 -46 1 -16 -64 15 -96 94 -96 75
0 132 44 132 103 0 43 -15 63 -75 99 -58 35 -74 60 -55 83 26 32 73 14 82 -30
2 -12 11 -20 23 -20 17 0 21 8 23 46 3 41 0 47 -23 57 -35 16 -94 14 -127 -4z"/>
</g>
</svg>
